<svg version="1.1" id="Layer_1" xmlns="http://www.w3.org/2000/svg" xmlns:xlink="http://www.w3.org/1999/xlink" x="0px" y="0px"
	 width="100%" viewBox="0 0 418 250" enable-background="new 0 0 418 250" xml:space="preserve">
<path fill="#000000" opacity="1.000000" stroke="none" 
	d="
M242.000000,251.000000 
	C161.333359,251.000000 81.166725,251.000000 1.000065,251.000000 
	C1.000043,167.666733 1.000043,84.333450 1.000021,1.000132 
	C140.333221,1.000088 279.666443,1.000088 418.999756,1.000044 
	C418.999817,84.333199 418.999817,167.666397 418.999908,250.999786 
	C360.166656,251.000000 301.333344,251.000000 242.000000,251.000000 
M303.792267,69.382523 
	C287.554962,69.382523 271.317627,69.382523 254.919266,69.382523 
	C254.919266,78.299324 254.919266,86.579369 254.919266,95.060661 
	C256.435669,95.486244 257.830383,96.081596 259.273956,96.244873 
	C263.740906,96.750107 265.124939,98.958267 264.887939,103.527336 
	C264.440155,112.159859 264.750061,120.831894 264.752533,129.487503 
	C264.755219,138.921814 264.757812,138.917847 255.748169,141.453491 
	C255.470535,141.531647 255.270386,141.885086 254.988815,142.153336 
	C254.988815,150.375778 254.988815,158.630554 254.988815,167.063904 
	C271.852051,167.063904 288.469238,167.063904 305.732300,167.202164 
	C306.165894,167.126495 306.599457,167.050827 307.799377,167.215347 
	C323.924835,167.215347 340.050323,167.215347 356.624481,167.215347 
	C356.624481,159.190613 356.740479,151.570480 356.487915,143.962570 
	C356.453674,142.930984 354.733276,141.635956 353.512146,141.030502 
	C351.061981,139.815674 347.161743,139.737030 346.063538,137.883713 
	C340.363251,128.264175 335.357391,118.233154 330.268768,108.645401 
	C336.811584,101.479301 343.868164,96.622124 353.232574,95.880844 
	C354.410370,95.787605 356.452118,94.538170 356.474548,93.776703 
	C356.712372,85.711739 356.621948,77.637108 356.621948,69.457779 
	C339.580200,69.457779 323.432526,69.457779 306.419952,69.343285 
	C305.840637,69.390419 305.261353,69.437553 303.792267,69.382523 
M239.527283,159.014877 
	C248.937637,153.981949 251.536377,145.959167 250.105713,135.861176 
	C249.573929,132.107651 250.329132,128.179901 249.892578,124.401489 
	C249.662521,122.410446 248.567062,120.089737 247.100616,118.754349 
	C243.202072,115.204208 238.889954,112.108223 234.742325,108.831619 
	C234.902817,108.490265 235.063324,108.148903 235.223816,107.807549 
	C239.780289,107.807549 244.336746,107.807549 249.019516,107.807549 
	C249.019516,102.379875 249.160324,97.391724 248.960571,92.417236 
	C248.859497,89.900833 249.035767,86.232887 247.552307,85.106674 
	C240.537216,79.781006 235.481262,71.732590 226.315170,69.347000 
	C226.159241,69.306419 225.983582,69.341599 225.817123,69.341721 
	C213.997803,69.350121 202.176895,69.262962 190.360779,69.461853 
	C188.409729,69.494698 186.131256,70.343704 184.601913,71.564468 
	C178.762100,76.225990 171.147629,80.183830 168.068008,86.341125 
	C165.193436,92.088493 167.232727,100.293709 167.110596,107.417091 
	C167.104889,107.749893 167.170044,108.094017 167.107162,108.414200 
	C166.300598,112.521385 168.138184,115.188377 171.391586,117.568329 
	C175.692719,120.714722 179.656815,124.321823 183.765778,127.730896 
	C183.557144,128.106659 183.348526,128.482407 183.139908,128.858170 
	C177.873840,128.858170 172.607773,128.858170 167.112000,128.858170 
	C167.112000,131.613525 167.466919,134.001205 167.051056,136.246094 
	C165.167145,146.416138 168.846420,153.788162 177.673706,158.945663 
	C179.798050,160.186874 181.663742,161.957260 183.429947,163.705032 
	C186.192703,166.438965 189.257187,167.519730 193.239960,167.351440 
	C201.050156,167.021484 208.934753,166.694519 216.694809,167.399033 
	C225.589401,168.206558 232.991913,166.178024 239.527283,159.014877 
M101.499512,167.264603 
	C111.993759,167.262253 122.506393,166.883987 132.975479,167.396118 
	C139.432602,167.712006 143.857452,165.024704 149.092972,161.673767 
	C160.534241,154.350937 164.446808,144.974258 162.928268,131.726440 
	C162.229843,125.633247 161.971130,120.384132 156.162506,117.100357 
	C155.974228,116.993927 155.970963,116.560257 155.857468,116.203781 
	C158.473587,113.347801 162.748535,111.919502 162.167862,106.478386 
	C161.448318,99.736130 163.818970,91.942383 161.180954,86.329544 
	C158.543243,80.717430 151.372955,77.235733 146.190125,72.819489 
	C145.936569,72.603439 145.724030,72.287880 145.432114,72.176292 
	C142.909058,71.211769 140.380188,69.494400 137.838135,69.468590 
	C116.685127,69.253830 95.528938,69.349602 74.373711,69.366898 
	C73.272133,69.367798 72.170670,69.507736 70.743446,69.605179 
	C70.743446,76.257034 71.068108,82.584488 70.637268,88.860085 
	C70.312279,93.593979 71.387886,96.566925 76.563255,96.754654 
	C80.440041,96.895287 80.878075,99.159462 80.814140,102.444778 
	C80.626183,112.102623 80.388458,121.784630 80.879234,131.421066 
	C81.170303,137.136276 79.911079,140.513580 73.700409,141.071381 
	C72.633034,141.167252 70.899895,142.951172 70.866272,143.999954 
	C70.622185,151.612823 70.735107,159.237137 70.735107,167.263412 
	C80.929344,167.263412 90.714417,167.263412 101.499512,167.264603 
z"/>
<path fill="#F9F9F9" opacity="1.000000" stroke="none" 
	d="
M305.086426,167.063904 
	C288.469238,167.063904 271.852051,167.063904 254.988815,167.063904 
	C254.988815,158.630554 254.988815,150.375778 254.988815,142.153336 
	C255.270386,141.885086 255.470535,141.531647 255.748169,141.453491 
	C264.757812,138.917847 264.755219,138.921814 264.752533,129.487503 
	C264.750061,120.831894 264.440155,112.159859 264.887939,103.527336 
	C265.124939,98.958267 263.740906,96.750107 259.273956,96.244873 
	C257.830383,96.081596 256.435669,95.486244 254.919266,95.060661 
	C254.919266,86.579369 254.919266,78.299324 254.919266,69.382523 
	C271.317627,69.382523 287.554962,69.382523 304.295654,69.867485 
	C304.921570,78.280067 305.044128,86.207687 305.003479,94.464432 
	C298.146271,97.997322 298.146271,97.997322 299.691742,105.343811 
	C303.071075,102.400452 306.353333,99.541672 309.909637,96.444183 
	C308.770660,95.828064 307.927338,95.371872 307.031311,94.454895 
	C307.080658,85.815323 307.182739,77.636551 307.284851,69.457779 
	C323.432526,69.457779 339.580200,69.457779 356.621948,69.457779 
	C356.621948,77.637108 356.712372,85.711739 356.474548,93.776703 
	C356.452118,94.538170 354.410370,95.787605 353.232574,95.880844 
	C343.868164,96.622124 336.811584,101.479301 330.268768,108.645401 
	C335.357391,118.233154 340.363251,128.264175 346.063538,137.883713 
	C347.161743,139.737030 351.061981,139.815674 353.512146,141.030502 
	C354.733276,141.635956 356.453674,142.930984 356.487915,143.962570 
	C356.740479,151.570480 356.624481,159.190613 356.624481,167.215347 
	C340.050323,167.215347 323.924835,167.215347 307.416870,166.628204 
	C307.040497,158.040405 307.046631,150.039719 307.362061,141.832794 
	C308.964905,140.985092 310.258514,140.343628 311.703644,139.627029 
	C309.516357,135.784271 307.506317,132.252853 305.228699,128.251389 
	C302.954163,130.344528 300.249115,131.745865 299.313721,133.911545 
	C297.072937,139.099625 301.343140,140.523575 305.128174,142.431793 
	C305.164917,150.952988 305.125671,159.008453 305.086426,167.063904 
M350.126923,80.513397 
	C350.126923,79.070442 350.126923,77.627495 350.126923,76.072647 
	C337.564850,76.072647 325.485809,76.072647 313.205933,76.072647 
	C313.205933,81.053650 313.205933,85.824173 313.205933,90.474487 
	C316.164612,91.783287 318.938202,93.010208 322.082245,94.401001 
	C312.300354,102.905014 302.956207,111.028496 292.765991,119.887512 
	C292.765991,111.665443 292.883575,104.571381 292.709778,97.484467 
	C292.637421,94.534149 292.990448,92.479195 296.314758,91.462799 
	C297.493286,91.102463 298.741180,88.990005 298.875000,87.575050 
	C299.230316,83.818550 298.995636,80.006226 298.995636,76.248444 
	C286.199677,76.248444 273.836853,76.248444 261.398804,76.248444 
	C261.398804,80.933350 260.306732,85.689079 261.817505,89.379150 
	C262.692688,91.516808 267.756927,91.939384 270.886780,93.115295 
	C270.886780,110.154747 270.886780,126.969528 270.886780,143.074585 
	C267.413391,145.044708 262.886383,146.097229 261.597046,148.733337 
	C260.040253,151.916290 261.228271,156.441727 261.228271,160.407898 
	C274.188385,160.407898 286.558807,160.407898 299.023376,160.407898 
	C299.023376,155.560471 299.023376,151.078598 299.023376,146.654709 
	C292.817566,143.564026 292.677917,143.559006 292.811096,139.852768 
	C292.933258,136.452759 292.190155,132.089264 293.972229,129.878448 
	C297.510437,125.489052 302.524170,122.289078 307.200256,118.369469 
	C311.951721,126.949097 316.403137,134.986923 320.878601,143.068146 
	C312.016327,146.989807 311.388580,148.595093 313.605225,160.492188 
	C325.676453,160.492188 337.753906,160.492188 349.787323,160.492188 
	C349.787323,155.613785 349.787323,151.030258 349.787323,147.255203 
	C346.493195,145.547745 342.589325,144.851166 341.300140,142.634140 
	C334.479248,130.904327 328.316162,118.791985 321.819824,106.615028 
	C331.006897,100.132553 337.503143,90.023811 350.126678,90.210854 
	C350.126678,86.799194 350.126678,84.143547 350.126923,80.513397 
z"/>
<path fill="#F4F4F4" opacity="1.000000" stroke="none" 
	d="
M239.240784,159.225891 
	C232.991913,166.178024 225.589401,168.206558 216.694809,167.399033 
	C208.934753,166.694519 201.050156,167.021484 193.239960,167.351440 
	C189.257187,167.519730 186.192703,166.438965 183.429947,163.705032 
	C181.663742,161.957260 179.798050,160.186874 177.673706,158.945663 
	C168.846420,153.788162 165.167145,146.416138 167.051056,136.246094 
	C167.466919,134.001205 167.112000,131.613525 167.112000,128.858170 
	C172.607773,128.858170 177.873840,128.858170 183.139908,128.858170 
	C183.348526,128.482407 183.557144,128.106659 183.765778,127.730896 
	C179.656815,124.321823 175.692719,120.714722 171.391586,117.568329 
	C168.138184,115.188377 166.300598,112.521385 167.107162,108.414200 
	C167.170044,108.094017 167.104889,107.749893 167.110596,107.417091 
	C167.232727,100.293709 165.193436,92.088493 168.068008,86.341125 
	C171.147629,80.183830 178.762100,76.225990 184.601913,71.564468 
	C186.131256,70.343704 188.409729,69.494698 190.360779,69.461853 
	C202.176895,69.262962 213.997803,69.350121 225.817123,69.341721 
	C225.983582,69.341599 226.159241,69.306419 226.315170,69.347000 
	C235.481262,71.732590 240.537216,79.781006 247.552307,85.106674 
	C249.035767,86.232887 248.859497,89.900833 248.960571,92.417236 
	C249.160324,97.391724 249.019516,102.379875 249.019516,107.807549 
	C244.336746,107.807549 239.780289,107.807549 235.223816,107.807549 
	C235.063324,108.148903 234.902817,108.490265 234.742325,108.831619 
	C238.889954,112.108223 243.202072,115.204208 247.100616,118.754349 
	C248.567062,120.089737 249.662521,122.410446 249.892578,124.401489 
	C250.329132,128.179901 249.573929,132.107651 250.105713,135.861176 
	C251.536377,145.959167 248.937637,153.981949 239.240784,159.225891 
M177.231705,150.063126 
	C180.052597,152.396591 183.029861,154.568451 185.652786,157.106506 
	C188.596451,159.954956 191.821686,160.977493 195.937073,160.843002 
	C204.921936,160.549393 213.928543,160.926697 222.914108,160.643936 
	C225.345734,160.567413 227.912155,159.436523 230.112122,158.232895 
	C241.499863,152.002457 246.369736,142.560867 243.772736,129.583710 
	C243.548599,128.463623 243.830170,127.251167 243.728210,126.094719 
	C243.659943,125.320335 243.577393,124.204086 243.077164,123.863327 
	C237.293396,119.923447 233.056870,113.705872 225.180542,112.837334 
	C217.098053,111.946045 209.048920,110.516586 201.090607,108.826370 
	C196.568985,107.866051 193.490402,106.154472 194.016129,99.387672 
	C194.391205,94.560081 197.550186,92.495094 201.259476,92.157692 
	C207.831589,91.559891 214.497192,91.990036 221.277100,91.990036 
	C221.971924,94.569344 222.325470,96.900665 223.269440,98.961548 
	C223.750854,100.012581 225.264038,101.207123 226.359344,101.256279 
	C231.643784,101.493446 236.944702,101.363068 242.157486,101.363068 
	C243.950531,90.806404 243.665970,89.970940 236.447250,83.893303 
	C234.538132,82.285950 232.821503,80.330383 230.677078,79.152756 
	C228.072281,77.722305 225.140625,76.148880 222.293488,76.032852 
	C212.814957,75.646584 203.302872,75.668388 193.821869,76.021973 
	C191.129242,76.122398 188.336426,77.590324 185.868011,78.940285 
	C175.731689,84.483818 171.718262,93.007416 173.842728,104.440506 
	C174.261642,106.694939 173.228287,110.188049 174.435593,111.161362 
	C179.995621,115.643745 184.256653,122.098679 192.305069,123.106049 
	C200.379379,124.116661 208.438934,125.432556 216.394653,127.131226 
	C220.988800,128.112152 223.602707,129.763611 223.094711,137.334686 
	C222.773346,142.124374 219.724747,144.386261 215.953217,144.709702 
	C209.066696,145.300278 202.093292,144.877640 195.097565,144.877640 
	C194.331680,142.218399 193.907715,139.893372 192.959320,137.806702 
	C192.472092,136.734680 191.080963,135.411346 190.043915,135.362762 
	C184.772781,135.115814 179.483841,135.248901 173.198898,135.248901 
	C175.406784,140.326843 171.134415,145.812805 177.231705,150.063126 
M199.674606,130.882507 
	C199.218918,130.995911 198.384277,131.061081 198.362808,131.229767 
	C197.781067,135.798462 199.955017,138.357498 204.371048,138.380661 
	C207.195953,138.395462 210.049652,138.622177 212.832916,138.282562 
	C214.075150,138.130997 215.175949,136.820267 216.340927,136.035614 
	C215.325836,135.026947 214.454361,133.394989 213.269760,133.122025 
	C209.080688,132.156708 204.784454,131.656326 199.674606,130.882507 
M205.504196,103.030685 
	C209.551651,103.688248 213.599121,104.345810 217.734589,105.017677 
	C217.985184,99.716949 215.607727,97.947327 210.870163,98.591736 
	C208.912170,98.858070 206.859512,98.420914 204.898743,98.677261 
	C203.463303,98.864922 202.107544,99.662186 200.716263,100.187729 
	C202.018967,101.107681 203.321671,102.027634 205.504196,103.030685 
z"/>
<path fill="#F5F5F5" opacity="1.000000" stroke="none" 
	d="
M100.999496,167.264008 
	C90.714417,167.263412 80.929344,167.263412 70.735107,167.263412 
	C70.735107,159.237137 70.622185,151.612823 70.866272,143.999954 
	C70.899895,142.951172 72.633034,141.167252 73.700409,141.071381 
	C79.911079,140.513580 81.170303,137.136276 80.879234,131.421066 
	C80.388458,121.784630 80.626183,112.102623 80.814140,102.444778 
	C80.878075,99.159462 80.440041,96.895287 76.563255,96.754654 
	C71.387886,96.566925 70.312279,93.593979 70.637268,88.860085 
	C71.068108,82.584488 70.743446,76.257034 70.743446,69.605179 
	C72.170670,69.507736 73.272133,69.367798 74.373711,69.366898 
	C95.528938,69.349602 116.685127,69.253830 137.838135,69.468590 
	C140.380188,69.494400 142.909058,71.211769 145.432114,72.176292 
	C145.724030,72.287880 145.936569,72.603439 146.190125,72.819489 
	C151.372955,77.235733 158.543243,80.717430 161.180954,86.329544 
	C163.818970,91.942383 161.448318,99.736130 162.167862,106.478386 
	C162.748535,111.919502 158.473587,113.347801 155.857468,116.203781 
	C155.970963,116.560257 155.974228,116.993927 156.162506,117.100357 
	C161.971130,120.384132 162.229843,125.633247 162.928268,131.726440 
	C164.446808,144.974258 160.534241,154.350937 149.092972,161.673767 
	C143.857452,165.024704 139.432602,167.712006 132.975479,167.396118 
	C122.506393,166.883987 111.993759,167.262253 100.999496,167.264008 
M93.502205,75.880814 
	C88.224854,75.880814 82.947510,75.880814 77.454872,75.880814 
	C77.454872,80.821701 77.454872,85.264160 77.454872,90.026680 
	C80.522224,90.950058 83.653870,91.892784 86.843536,92.852982 
	C86.843536,110.003578 86.843536,126.928055 86.843536,142.983322 
	C83.310883,145.074356 78.866104,146.196991 77.604523,148.839386 
	C76.077225,152.038345 77.242317,156.522736 77.242317,160.758026 
	C96.354439,160.758026 114.812798,160.450546 133.254318,160.875015 
	C144.066696,161.123871 148.396652,151.905197 155.714844,147.069061 
	C155.995804,146.883377 155.981445,146.135864 155.977661,145.651154 
	C155.895050,135.053101 158.856247,123.386093 146.056030,117.215851 
	C145.799988,117.092415 145.664474,116.718971 145.337753,116.281387 
	C147.268127,114.724251 149.087906,112.985374 151.163956,111.642746 
	C154.605453,109.417068 155.082123,106.362724 155.569855,102.453835 
	C156.817627,92.453224 153.445877,85.573700 145.057556,79.998238 
	C141.120270,77.381233 137.716934,75.690491 132.952148,75.791061 
	C120.140373,76.061462 107.319099,75.881866 93.502205,75.880814 
z"/>
<path fill="#7D7D7D" opacity="1.000000" stroke="none" 
	d="
M306.852417,69.400528 
	C307.182739,77.636551 307.080658,85.815323 306.764709,94.455589 
	C306.089447,94.656494 305.628052,94.395905 305.166687,94.135315 
	C305.044128,86.207687 304.921570,78.280067 304.740540,69.918564 
	C305.261353,69.437553 305.840637,69.390419 306.852417,69.400528 
z"/>
<path fill="#5F5F5F" opacity="1.000000" stroke="none" 
	d="
M307.052795,142.039047 
	C307.046631,150.039719 307.040497,158.040405 307.033691,166.508118 
	C306.599457,167.050827 306.165894,167.126495 305.409363,167.133026 
	C305.125671,159.008453 305.164917,150.952988 305.462524,142.425964 
	C306.164856,141.982605 306.608826,142.010834 307.052795,142.039047 
z"/>
<path fill="#040404" opacity="1.000000" stroke="none" 
	d="
M350.126801,81.000648 
	C350.126678,84.143547 350.126678,86.799194 350.126678,90.210854 
	C337.503143,90.023811 331.006897,100.132553 321.819824,106.615028 
	C328.316162,118.791985 334.479248,130.904327 341.300140,142.634140 
	C342.589325,144.851166 346.493195,145.547745 349.787323,147.255203 
	C349.787323,151.030258 349.787323,155.613785 349.787323,160.492188 
	C337.753906,160.492188 325.676453,160.492188 313.605225,160.492188 
	C311.388580,148.595093 312.016327,146.989807 320.878601,143.068146 
	C316.403137,134.986923 311.951721,126.949097 307.200256,118.369469 
	C302.524170,122.289078 297.510437,125.489052 293.972229,129.878448 
	C292.190155,132.089264 292.933258,136.452759 292.811096,139.852768 
	C292.677917,143.559006 292.817566,143.564026 299.023376,146.654709 
	C299.023376,151.078598 299.023376,155.560471 299.023376,160.407898 
	C286.558807,160.407898 274.188385,160.407898 261.228271,160.407898 
	C261.228271,156.441727 260.040253,151.916290 261.597046,148.733337 
	C262.886383,146.097229 267.413391,145.044708 270.886780,143.074585 
	C270.886780,126.969528 270.886780,110.154747 270.886780,93.115295 
	C267.756927,91.939384 262.692688,91.516808 261.817505,89.379150 
	C260.306732,85.689079 261.398804,80.933350 261.398804,76.248444 
	C273.836853,76.248444 286.199677,76.248444 298.995636,76.248444 
	C298.995636,80.006226 299.230316,83.818550 298.875000,87.575050 
	C298.741180,88.990005 297.493286,91.102463 296.314758,91.462799 
	C292.990448,92.479195 292.637421,94.534149 292.709778,97.484467 
	C292.883575,104.571381 292.765991,111.665443 292.765991,119.887512 
	C302.956207,111.028496 312.300354,102.905014 322.082245,94.401001 
	C318.938202,93.010208 316.164612,91.783287 313.205933,90.474487 
	C313.205933,85.824173 313.205933,81.053650 313.205933,76.072647 
	C325.485809,76.072647 337.564850,76.072647 350.126923,76.072647 
	C350.126923,77.627495 350.126923,79.070442 350.126801,81.000648 
z"/>
<path fill="#0A0A0A" opacity="1.000000" stroke="none" 
	d="
M307.362061,141.832794 
	C306.608826,142.010834 306.164856,141.982605 305.386536,141.960220 
	C301.343140,140.523575 297.072937,139.099625 299.313721,133.911545 
	C300.249115,131.745865 302.954163,130.344528 305.228699,128.251389 
	C307.506317,132.252853 309.516357,135.784271 311.703644,139.627029 
	C310.258514,140.343628 308.964905,140.985092 307.362061,141.832794 
z"/>
<path fill="#0F0F0F" opacity="1.000000" stroke="none" 
	d="
M305.003479,94.464432 
	C305.628052,94.395905 306.089447,94.656494 306.817413,94.916382 
	C307.927338,95.371872 308.770660,95.828064 309.909637,96.444183 
	C306.353333,99.541672 303.071075,102.400452 299.691742,105.343811 
	C298.146271,97.997322 298.146271,97.997322 305.003479,94.464432 
z"/>
<path fill="#040404" opacity="1.000000" stroke="none" 
	d="
M176.951126,149.805023 
	C171.134415,145.812805 175.406784,140.326843 173.198898,135.248901 
	C179.483841,135.248901 184.772781,135.115814 190.043915,135.362762 
	C191.080963,135.411346 192.472092,136.734680 192.959320,137.806702 
	C193.907715,139.893372 194.331680,142.218399 195.097565,144.877640 
	C202.093292,144.877640 209.066696,145.300278 215.953217,144.709702 
	C219.724747,144.386261 222.773346,142.124374 223.094711,137.334686 
	C223.602707,129.763611 220.988800,128.112152 216.394653,127.131226 
	C208.438934,125.432556 200.379379,124.116661 192.305069,123.106049 
	C184.256653,122.098679 179.995621,115.643745 174.435593,111.161362 
	C173.228287,110.188049 174.261642,106.694939 173.842728,104.440506 
	C171.718262,93.007416 175.731689,84.483818 185.868011,78.940285 
	C188.336426,77.590324 191.129242,76.122398 193.821869,76.021973 
	C203.302872,75.668388 212.814957,75.646584 222.293488,76.032852 
	C225.140625,76.148880 228.072281,77.722305 230.677078,79.152756 
	C232.821503,80.330383 234.538132,82.285950 236.447250,83.893303 
	C243.665970,89.970940 243.950531,90.806404 242.157486,101.363068 
	C236.944702,101.363068 231.643784,101.493446 226.359344,101.256279 
	C225.264038,101.207123 223.750854,100.012581 223.269440,98.961548 
	C222.325470,96.900665 221.971924,94.569344 221.277100,91.990036 
	C214.497192,91.990036 207.831589,91.559891 201.259476,92.157692 
	C197.550186,92.495094 194.391205,94.560081 194.016129,99.387672 
	C193.490402,106.154472 196.568985,107.866051 201.090607,108.826370 
	C209.048920,110.516586 217.098053,111.946045 225.180542,112.837334 
	C233.056870,113.705872 237.293396,119.923447 243.077164,123.863327 
	C243.577393,124.204086 243.659943,125.320335 243.728210,126.094719 
	C243.830170,127.251167 243.548599,128.463623 243.772736,129.583710 
	C246.369736,142.560867 241.499863,152.002457 230.112122,158.232895 
	C227.912155,159.436523 225.345734,160.567413 222.914108,160.643936 
	C213.928543,160.926697 204.921936,160.549393 195.937073,160.843002 
	C191.821686,160.977493 188.596451,159.954956 185.652786,157.106506 
	C183.029861,154.568451 180.052597,152.396591 176.951126,149.805023 
z"/>
<path fill="#070707" opacity="1.000000" stroke="none" 
	d="
M200.101730,130.931091 
	C204.784454,131.656326 209.080688,132.156708 213.269760,133.122025 
	C214.454361,133.394989 215.325836,135.026947 216.340927,136.035614 
	C215.175949,136.820267 214.075150,138.130997 212.832916,138.282562 
	C210.049652,138.622177 207.195953,138.395462 204.371048,138.380661 
	C199.955017,138.357498 197.781067,135.798462 198.362808,131.229767 
	C198.384277,131.061081 199.218918,130.995911 200.101730,130.931091 
z"/>
<path fill="#0A0A0A" opacity="1.000000" stroke="none" 
	d="
M205.064285,102.989136 
	C203.321671,102.027634 202.018967,101.107681 200.716263,100.187729 
	C202.107544,99.662186 203.463303,98.864922 204.898743,98.677261 
	C206.859512,98.420914 208.912170,98.858070 210.870163,98.591736 
	C215.607727,97.947327 217.985184,99.716949 217.734589,105.017677 
	C213.599121,104.345810 209.551651,103.688248 205.064285,102.989136 
z"/>
<path fill="#040404" opacity="1.000000" stroke="none" 
	d="
M94.001907,75.880875 
	C107.319099,75.881866 120.140373,76.061462 132.952148,75.791061 
	C137.716934,75.690491 141.120270,77.381233 145.057556,79.998238 
	C153.445877,85.573700 156.817627,92.453224 155.569855,102.453835 
	C155.082123,106.362724 154.605453,109.417068 151.163956,111.642746 
	C149.087906,112.985374 147.268127,114.724251 145.337753,116.281387 
	C145.664474,116.718971 145.799988,117.092415 146.056030,117.215851 
	C158.856247,123.386093 155.895050,135.053101 155.977661,145.651154 
	C155.981445,146.135864 155.995804,146.883377 155.714844,147.069061 
	C148.396652,151.905197 144.066696,161.123871 133.254318,160.875015 
	C114.812798,160.450546 96.354439,160.758026 77.242317,160.758026 
	C77.242317,156.522736 76.077225,152.038345 77.604523,148.839386 
	C78.866104,146.196991 83.310883,145.074356 86.843536,142.983322 
	C86.843536,126.928055 86.843536,110.003578 86.843536,92.852982 
	C83.653870,91.892784 80.522224,90.950058 77.454872,90.026680 
	C77.454872,85.264160 77.454872,80.821701 77.454872,75.880814 
	C82.947510,75.880814 88.224854,75.880814 94.001907,75.880875 
M121.448189,121.773422 
	C117.016693,121.773422 112.585197,121.773422 107.956505,121.773422 
	C107.956505,129.626770 107.956505,137.012238 107.956505,144.870453 
	C115.086891,144.870453 122.012711,144.913879 128.936569,144.816742 
	C129.824799,144.804291 130.725967,144.104797 131.581818,143.649643 
	C137.823502,140.330139 135.236313,134.432358 135.560120,129.475845 
	C135.825180,125.418640 132.454178,122.026260 128.395126,121.780975 
	C126.410423,121.661041 124.412910,121.753082 121.448189,121.773422 
M110.610153,91.998901 
	C109.665146,92.562897 107.918587,93.100296 107.898857,93.694984 
	C107.696831,99.783508 107.775124,105.881325 107.775124,112.235191 
	C113.531693,112.235191 118.688797,111.966492 123.807053,112.297905 
	C131.569336,112.800514 136.173233,110.591469 135.327057,100.776291 
	C134.808121,94.756844 132.600616,92.039749 126.587013,92.003349 
	C121.590118,91.973106 116.592888,91.998039 110.610153,91.998901 
z"/>
<path fill="#F3F3F3" opacity="1.000000" stroke="none" 
	d="
M121.934692,121.761299 
	C124.412910,121.753082 126.410423,121.661041 128.395126,121.780975 
	C132.454178,122.026260 135.825180,125.418640 135.560120,129.475845 
	C135.236313,134.432358 137.823502,140.330139 131.581818,143.649643 
	C130.725967,144.104797 129.824799,144.804291 128.936569,144.816742 
	C122.012711,144.913879 115.086891,144.870453 107.956505,144.870453 
	C107.956505,137.012238 107.956505,129.626770 107.956505,121.773422 
	C112.585197,121.773422 117.016693,121.773422 121.934692,121.761299 
M116.554604,138.383255 
	C118.041885,138.383606 119.529182,138.380783 121.016457,138.384857 
	C130.097534,138.409683 130.272705,138.188354 128.523392,128.521851 
	C123.875938,128.521851 119.173599,128.521851 113.329140,128.521851 
	C114.129318,132.034103 114.851425,135.203705 116.554604,138.383255 
z"/>
<path fill="#F9F9F9" opacity="1.000000" stroke="none" 
	d="
M111.102982,91.998711 
	C116.592888,91.998039 121.590118,91.973106 126.587013,92.003349 
	C132.600616,92.039749 134.808121,94.756844 135.327057,100.776291 
	C136.173233,110.591469 131.569336,112.800514 123.807053,112.297905 
	C118.688797,111.966492 113.531693,112.235191 107.775124,112.235191 
	C107.775124,105.881325 107.696831,99.783508 107.898857,93.694984 
	C107.918587,93.100296 109.665146,92.562897 111.102982,91.998711 
M116.679787,105.990791 
	C118.658524,105.990822 120.637253,105.991081 122.615990,105.990845 
	C129.384995,105.990044 129.384995,105.989983 128.531662,98.920616 
	C123.876328,98.920616 119.178078,98.920616 113.314064,98.920616 
	C114.170944,101.430580 114.948593,103.708435 116.679787,105.990791 
z"/>
<path fill="#090909" opacity="1.000000" stroke="none" 
	d="
M116.064072,138.378281 
	C114.851425,135.203705 114.129318,132.034103 113.329140,128.521851 
	C119.173599,128.521851 123.875938,128.521851 128.523392,128.521851 
	C130.272705,138.188354 130.097534,138.409683 121.016457,138.384857 
	C119.529182,138.380783 118.041885,138.383606 116.064072,138.378281 
z"/>
<path fill="#000000" opacity="1.000000" stroke="none" 
	d="
M116.203011,105.988541 
	C114.948593,103.708435 114.170944,101.430580 113.314064,98.920616 
	C119.178078,98.920616 123.876328,98.920616 128.531662,98.920616 
	C129.384995,105.989983 129.384995,105.990044 122.615990,105.990845 
	C120.637253,105.991081 118.658524,105.990822 116.203011,105.988541 
z"/>
</svg>